# xmcd
#
# Track frame offsets: 
#        150
#        17347
#        30825
#        43804
#        56205
#        72063
#        85464
#        99574
#        115078
#        130672
#        142810
#        156810
#        170574
#        184276
#        197376
#        209952
#        223536
#        235881
#        247274
#        259189
#
# Disc length: 3621 seconds
#
# Revision: 0
# Processed by: cddbd v1.5.2PL0 Copyright (c) Steve Scherf et al.
# Submitted via: ExactAudioCopy v1.0b1
#
DISCID=1f0e2314
DTITLE=Eartha Kitt - The Essential Eartha Kitt
DYEAR=1900
DGENRE=Soul
TTITLE0=Monotonus
TTITLE1=Bal Petit Bal
TTITLE2=Annie Doesn't Live Here Anymore
TTITLE3=Two Lovers
TTITLE4=I Want to be Evil
TTITLE5=Cest si bon (It's So Good)
TTITLE6=Uska Dara - A Turkish Tale
TTITLE7=Angelitos Negros
TTITLE8=Santa Baby
TTITLE9=Under the bridges of Paris
TTITLE10=Let's do It
TTITLE11=Smoke gets in your eyes
TTITLE12=My Heart Belongs to Daddy
TTITLE13=Lovin Spree
TTITLE14=Somebody Bad Stole De Wedding Bell
TTITLE15=Looking for a Boy
TTITLE16=If I Was as Boy
TTITLE17=My Daddy is a Dandy
TTITLE18=Hey Jacque
TTITLE19=The Heel
EXTD=
EXTT0=
EXTT1=
EXTT2=
EXTT3=
EXTT4=
EXTT5=
EXTT6=
EXTT7=
EXTT8=
EXTT9=
EXTT10=
EXTT11=
EXTT12=
EXTT13=
EXTT14=
EXTT15=
EXTT16=
EXTT17=
EXTT18=
EXTT19=
PLAYORDER=
